<svg width="50" height="40" viewBox="0 0 50 40" fill="none" xmlns="http://www.w3.org/2000/svg">
<rect x="0.25" y="0.25" width="49.5" height="39.5" rx="4.75" fill="white" stroke="#E0E0E0" stroke-width="0.5"/>
<path d="M25.22 9.5H24.78C24.2496 9.5 23.7409 9.71071 23.3658 10.0858C22.9907 10.4609 22.78 10.9696 22.78 11.5V11.68C22.7796 12.0307 22.6871 12.3752 22.5115 12.6788C22.336 12.9825 22.0837 13.2346 21.78 13.41L21.35 13.66C21.046 13.8355 20.7011 13.9279 20.35 13.9279C19.9989 13.9279 19.654 13.8355 19.35 13.66L19.2 13.58C18.7411 13.3153 18.1958 13.2434 17.684 13.3803C17.1722 13.5172 16.7356 13.8515 16.47 14.31L16.25 14.69C15.9853 15.1489 15.9134 15.6942 16.0503 16.206C16.1872 16.7178 16.5215 17.1544 16.98 17.42L17.13 17.52C17.4323 17.6945 17.6836 17.9451 17.8591 18.2468C18.0345 18.5486 18.1279 18.891 18.13 19.24V19.75C18.1314 20.1024 18.0397 20.449 17.864 20.7545C17.6884 21.0601 17.4352 21.3138 17.13 21.49L16.98 21.58C16.5215 21.8456 16.1872 22.2822 16.0503 22.794C15.9134 23.3058 15.9853 23.8511 16.25 24.31L16.47 24.69C16.7356 25.1485 17.1722 25.4828 17.684 25.6197C18.1958 25.7566 18.7411 25.6847 19.2 25.42L19.35 25.34C19.654 25.1645 19.9989 25.0721 20.35 25.0721C20.7011 25.0721 21.046 25.1645 21.35 25.34L21.78 25.59C22.0837 25.7654 22.336 26.0175 22.5115 26.3212C22.6871 26.6248 22.7796 26.9693 22.78 27.32V27.5C22.78 28.0304 22.9907 28.5391 23.3658 28.9142C23.7409 29.2893 24.2496 29.5 24.78 29.5H25.22C25.7504 29.5 26.2591 29.2893 26.6342 28.9142C27.0093 28.5391 27.22 28.0304 27.22 27.5V27.32C27.2204 26.9693 27.3129 26.6248 27.4885 26.3212C27.664 26.0175 27.9163 25.7654 28.22 25.59L28.65 25.34C28.954 25.1645 29.2989 25.0721 29.65 25.0721C30.0011 25.0721 30.346 25.1645 30.65 25.34L30.8 25.42C31.2589 25.6847 31.8042 25.7566 32.316 25.6197C32.8278 25.4828 33.2645 25.1485 33.53 24.69L33.75 24.3C34.0147 23.8411 34.0866 23.2958 33.9497 22.784C33.8128 22.2722 33.4785 21.8356 33.02 21.57L32.87 21.49C32.5648 21.3138 32.3116 21.0601 32.136 20.7545C31.9604 20.449 31.8686 20.1024 31.87 19.75V19.25C31.8686 18.8976 31.9604 18.551 32.136 18.2455C32.3116 17.9399 32.5648 17.6862 32.87 17.51L33.02 17.42C33.4785 17.1544 33.8128 16.7178 33.9497 16.206C34.0866 15.6942 34.0147 15.1489 33.75 14.69L33.53 14.31C33.2645 13.8515 32.8278 13.5172 32.316 13.3803C31.8042 13.2434 31.2589 13.3153 30.8 13.58L30.65 13.66C30.346 13.8355 30.0011 13.9279 29.65 13.9279C29.2989 13.9279 28.954 13.8355 28.65 13.66L28.22 13.41C27.9163 13.2346 27.664 12.9825 27.4885 12.6788C27.3129 12.3752 27.2204 12.0307 27.22 11.68V11.5C27.22 10.9696 27.0093 10.4609 26.6342 10.0858C26.2591 9.71071 25.7504 9.5 25.22 9.5V9.5Z" stroke="#757D8A" stroke-linecap="round" stroke-linejoin="round"/>
<path d="M25 22.5C26.6569 22.5 28 21.1569 28 19.5C28 17.8431 26.6569 16.5 25 16.5C23.3431 16.5 22 17.8431 22 19.5C22 21.1569 23.3431 22.5 25 22.5Z" stroke="#757D8A" stroke-linecap="round" stroke-linejoin="round"/>
</svg>
